<?xml version="1.0" encoding="UTF-8"?>
<svg width="90px" height="18px" viewBox="0 0 90 18" version="1.1" xmlns="http://www.w3.org/2000/svg" xmlns:xlink="http://www.w3.org/1999/xlink">
    <!-- Generator: Sketch 42 (36781) - http://www.bohemiancoding.com/sketch -->
    <title>起点女生网</title>
    <desc>Created with Sketch.</desc>
    <defs></defs>
    <g id="首页" stroke="none" stroke-width="1" fill="none" fill-rule="evenodd">
        <path d="M12.8671875,16.6171875 C6.96090797,16.8046884 3.67969078,15.2578289 3.0234375,11.9765625 C2.50780992,13.9453223 1.66406836,15.4687446 0.4921875,16.546875 C0.351561797,16.6406255 0.28125,16.5703137 0.28125,16.3359375 C1.12500422,14.83593 1.546875,12.9375115 1.546875,10.640625 L1.546875,8.6015625 C1.546875,8.41406156 1.6171868,8.3203125 1.7578125,8.3203125 C1.99218867,8.3203125 2.34374766,8.36718703 2.8125,8.4609375 C3.32812758,8.55468797 3.67968656,8.62499977 3.8671875,8.671875 C4.0078132,8.71875023 4.03125047,8.8124993 3.9375,8.953125 L3.7265625,9.1640625 C3.53906156,9.3046882 3.4453125,9.4453118 3.4453125,9.5859375 C3.35156203,10.289066 3.2343757,10.9453095 3.09375,11.5546875 C3.46875187,12.257816 3.93749719,12.8437477 4.5,13.3125 L4.5,7.40625 L0.7734375,7.40625 L0.421875,6.9140625 C0.609375938,6.9140625 0.796874062,6.93749977 0.984375,6.984375 L4.2890625,6.984375 L4.2890625,4.03125 L1.6875,4.03125 L1.3359375,3.5390625 C1.57031367,3.5390625 1.78124906,3.56249977 1.96875,3.609375 L4.2890625,3.609375 L4.2890625,1.359375 L4.21875,0.515625 C4.26562523,0.468749766 4.31249977,0.4453125 4.359375,0.4453125 C5.25000445,0.4453125 5.95312242,0.539061563 6.46875,0.7265625 C6.56250047,0.773437734 6.56250047,0.867186797 6.46875,1.0078125 C6.28124906,1.1484382 6.1171882,1.26562453 5.9765625,1.359375 L5.9765625,3.609375 L6.75,3.609375 C7.21875234,2.99999695 7.5234368,2.64843797 7.6640625,2.5546875 C7.75781297,2.46093703 7.82812477,2.46093703 7.875,2.5546875 C8.57812852,3.07031508 8.9999993,3.49218586 9.140625,3.8203125 C9.18750023,3.86718773 9.1406257,3.93749953 9,4.03125 L5.9765625,4.03125 L5.9765625,6.984375 L7.1015625,6.984375 C7.19531297,6.89062453 7.3124993,6.75000094 7.453125,6.5625 L8.0859375,5.9296875 C8.13281273,5.83593703 8.17968727,5.83593703 8.2265625,5.9296875 C8.92969102,6.44531508 9.3515618,6.86718586 9.4921875,7.1953125 C9.53906273,7.24218773 9.4921882,7.31249953 9.3515625,7.40625 L6.75,7.40625 C6.75,7.45312523 6.72656273,7.4765625 6.6796875,7.4765625 L6.46875,7.6875 C6.28124906,7.8281257 6.1875,7.92187477 6.1875,7.96875 L6.1875,10.5703125 L6.9609375,10.5703125 C7.42968984,9.96093445 7.7343743,9.60937547 7.875,9.515625 C7.96875047,9.46874977 8.03906227,9.4453125 8.0859375,9.4453125 C8.69531555,9.91406484 9.11718633,10.3359356 9.3515625,10.7109375 C9.3515625,10.8515632 9.30468797,10.921875 9.2109375,10.921875 L6.1875,10.921875 L6.1875,14.2265625 C7.07812945,14.5546891 8.01562008,14.71875 9,14.71875 L13.8515625,14.71875 C14.8828177,14.6718748 16.0781182,14.5312512 17.4375,14.296875 C17.5312505,14.3906255 17.5312505,14.4843745 17.4375,14.578125 C16.7343715,15.0468773 16.335938,15.7031208 16.2421875,16.546875 C16.1953123,16.5937502 16.1484377,16.6171875 16.1015625,16.6171875 C15.8671863,16.6640627 15.6328137,16.6640627 15.3984375,16.6171875 L12.8671875,16.6171875 Z M15.6796875,7.96875 C15.0234342,8.57812805 14.4375026,8.64843984 13.921875,8.1796875 L13.921875,7.546875 L11.390625,7.546875 L11.390625,11.34375 C11.390625,11.8125023 11.7187467,12.046875 12.375,12.046875 L14.0625,12.046875 C15.0468799,12.3281264 15.8671842,11.3671985 16.5234375,9.1640625 C16.6640632,9.07031203 16.7812495,9.07031203 16.875,9.1640625 C16.4999981,10.3359434 16.4531236,11.1562477 16.734375,11.625 C16.7812502,11.7187505 16.851562,11.8359368 16.9453125,11.9765625 C17.039063,12.1640634 17.0859375,12.304687 17.0859375,12.3984375 C16.9453118,13.1953165 16.1953193,13.59375 14.8359375,13.59375 L11.4609375,13.59375 C10.2890566,13.6406252 9.72656227,13.1953172 9.7734375,12.2578125 L9.7734375,6.4921875 C9.82031273,6.3515618 9.9140618,6.30468727 10.0546875,6.3515625 C10.3828141,6.4921882 10.7812477,6.77343539 11.25,7.1953125 L13.921875,7.1953125 L13.921875,3.2578125 L10.7578125,3.2578125 C10.5234363,3.2578125 10.2890637,3.28124977 10.0546875,3.328125 L9.6328125,2.765625 L10.7578125,2.90625 L13.5,2.90625 C13.7343762,2.67187383 13.9921861,2.46093844 14.2734375,2.2734375 C14.4140632,2.22656227 14.5078123,2.203125 14.5546875,2.203125 C14.9296894,2.3437507 15.3515602,2.57812336 15.8203125,2.90625 C16.0078134,3.00000047 16.1249998,3.07031227 16.171875,3.1171875 C16.3125007,3.21093797 16.3125007,3.3281243 16.171875,3.46875 C15.9374988,3.70312617 15.7500007,3.86718703 15.609375,3.9609375 L15.609375,6.9140625 C15.6562502,7.57031578 15.6796875,7.92187477 15.6796875,7.96875 Z M23.2734375,6.421875 L23.2734375,10.78125 L30.375,10.78125 L30.375,6.421875 L23.2734375,6.421875 Z M23.2734375,11.6953125 C23.2265623,12.1171896 22.8750033,12.3984368 22.21875,12.5390625 C21.6562472,12.5859377 21.375,12.3750023 21.375,11.90625 L21.375,5.296875 C22.0312533,5.4375007 22.6874967,5.69531063 23.34375,6.0703125 L25.3125,6.0703125 L25.3125,1.0078125 L25.2421875,0.09375 L25.3125,0.0234375 L25.59375,0.0234375 C26.5781299,0.117187969 27.2343734,0.234374297 27.5625,0.375 C27.6562505,0.421875234 27.6796877,0.492187031 27.6328125,0.5859375 L27.2109375,1.0078125 L27.2109375,3.2578125 L30.796875,3.2578125 C30.9375007,3.1171868 31.1249988,2.88281414 31.359375,2.5546875 C31.6406264,2.17968563 31.8515618,1.9218757 31.9921875,1.78125 L32.2734375,1.78125 L32.4140625,1.8515625 C33.5390681,2.60156625 34.1718743,3.09374883 34.3125,3.328125 C34.3125,3.4687507 34.2421882,3.56249977 34.1015625,3.609375 L27.2109375,3.609375 L27.2109375,6.0703125 L30.0234375,6.0703125 C30.3515641,5.64843539 30.6093741,5.39062547 30.796875,5.296875 C30.8906255,5.24999977 30.9843745,5.2265625 31.078125,5.2265625 C31.5937526,5.3671882 32.2265588,5.69530992 32.9765625,6.2109375 L32.9765625,6.4921875 L32.484375,7.0546875 L32.484375,11.484375 C32.3906245,11.8593769 31.9687537,12.0703123 31.21875,12.1171875 C30.6562472,12.1171875 30.375,11.9062521 30.375,11.484375 L30.375,11.1328125 L23.2734375,11.1328125 L23.2734375,11.6953125 Z M20.8125,12.75 C21.5156285,14.3906332 21.468754,15.7031201 20.671875,16.6875 C20.1562474,17.2031276 19.6171903,17.2968766 19.0546875,16.96875 C18.5390599,16.4999977 18.4921854,15.9609405 18.9140625,15.3515625 L19.125,15.2109375 L19.546875,15 C20.2031283,14.4374972 20.53125,13.6875047 20.53125,12.75 C20.5781252,12.6093743 20.6718743,12.6093743 20.8125,12.75 Z M23.6080128,15.4558309 C23.5955153,15.4816077 23.6011777,15.4468516 23.625,15.3515625 C23.6189467,15.387882 23.6132843,15.4226382 23.6080128,15.4558309 L23.6080128,15.4558309 Z M23.6080128,15.4558309 C23.6201067,15.4308864 23.6492066,15.3492553 23.6953125,15.2109375 C23.9296887,14.5546842 23.8359396,13.8046917 23.4140625,12.9609375 C23.4609377,12.8203118 23.5312495,12.7734373 23.625,12.8203125 C25.0781323,13.6640667 25.7812502,14.6484319 25.734375,15.7734375 C25.6874998,16.3359403 25.3125035,16.664062 24.609375,16.7578125 C23.9062465,16.7578125 23.5546875,16.4765653 23.5546875,15.9140625 C23.5546875,15.8324185 23.5724624,15.6796759 23.6080128,15.4558309 L23.6080128,15.4558309 Z M27.3515625,12.609375 C29.0859462,13.4531292 29.9765623,14.4140571 30.0234375,15.4921875 C30.0703127,16.195316 29.742191,16.6406241 29.0390625,16.828125 C28.335934,16.8750002 27.9140632,16.5468785 27.7734375,15.84375 C27.7265623,15.7031243 27.7265623,15.4921889 27.7734375,15.2109375 L27.7734375,14.9296875 C27.867188,14.4140599 27.6328153,13.7343792 27.0703125,12.890625 C27.0234373,12.6562488 27.1171863,12.5624998 27.3515625,12.609375 Z M31.5,12.5390625 C33.4687598,12.9609396 34.6874977,13.7343694 35.15625,14.859375 C35.4843766,15.5625035 35.343753,16.1249979 34.734375,16.546875 C33.9843713,16.9218769 33.3984396,16.757816 32.9765625,16.0546875 C32.9296873,15.960937 32.8828127,15.6796898 32.8359375,15.2109375 C32.8359375,15.304688 32.8125002,15.2343762 32.765625,15 C32.4843736,14.0156201 31.992191,13.2890648 31.2890625,12.8203125 C31.195312,12.6328116 31.2656238,12.5390625 31.5,12.5390625 Z M45.0703125,11.9765625 C46.0078172,10.6640559 46.5468743,8.95313555 46.6875,6.84375 L43.453125,6.84375 C42.8906222,8.29688227 42.2812533,9.8437418 41.625,11.484375 C41.8125009,11.5312502 42.0937481,11.5546875 42.46875,11.5546875 C43.5937556,11.6953132 44.4609345,11.8359368 45.0703125,11.9765625 Z M48.8671875,6.84375 C49.1015637,6.93750047 49.2421873,7.0546868 49.2890625,7.1953125 C49.382813,7.24218773 49.382813,7.31249953 49.2890625,7.40625 C49.1484368,7.40625 48.9843759,7.45312453 48.796875,7.546875 C48.4218731,9.46875961 47.789067,11.0859309 46.8984375,12.3984375 C48.1171936,12.7265641 49.1718705,13.242184 50.0625,13.9453125 C50.859379,14.5078153 51.1640634,15.1406215 50.9765625,15.84375 C50.6015606,16.640629 50.0390662,16.8281271 49.2890625,16.40625 C49.1484368,16.2656243 48.8906269,16.0312516 48.515625,15.703125 C47.5312451,14.8124955 46.6640662,14.1328148 45.9140625,13.6640625 C43.9921779,15.5390719 41.0625197,16.4765625 37.125,16.4765625 C36.9843743,16.4765625 36.9140625,16.4531252 36.9140625,16.40625 C36.9609377,16.3593748 37.0312495,16.3125002 37.125,16.265625 C40.4531416,15.7968727 42.9140545,14.6484466 44.5078125,12.8203125 C43.617183,12.3515602 42.6093806,12.0468757 41.484375,11.90625 C40.6406208,12.0000005 40.0078146,11.8593769 39.5859375,11.484375 L39.5859375,11.34375 C40.2421908,9.8437425 40.8515597,8.3437575 41.4140625,6.84375 L36.7734375,6.84375 L36.421875,6.3515625 C36.7968769,6.39843773 37.0078123,6.421875 37.0546875,6.421875 L41.484375,6.421875 C42.1875035,4.49999039 42.6796861,2.55469734 42.9609375,0.5859375 C43.0078127,0.492187031 43.0781245,0.468749766 43.171875,0.515625 C43.8750035,0.703125937 44.6718705,0.984373125 45.5625,1.359375 C45.6093752,1.45312547 45.585938,1.54687453 45.4921875,1.640625 C45.3515618,1.73437547 45.1406264,1.89843633 44.859375,2.1328125 C44.6249988,3.25781812 44.203128,4.68749133 43.59375,6.421875 L50.0625,6.421875 C50.1093752,6.37499977 50.179687,6.25781344 50.2734375,6.0703125 C50.7421898,5.46093445 51.1171861,5.03906367 51.3984375,4.8046875 C51.3984375,4.75781227 51.4687493,4.75781227 51.609375,4.8046875 C52.6406302,5.50781602 53.3437481,6.04687313 53.71875,6.421875 C53.8593757,6.5625007 53.8359384,6.7031243 53.6484375,6.84375 L48.8671875,6.84375 Z M57.8671875,2.203125 C58.570316,2.3437507 59.4374948,2.57812336 60.46875,2.90625 C60.5156252,2.90625 60.5156252,2.9765618 60.46875,3.1171875 L60.46875,3.1875 C60.4218748,3.23437523 60.3281257,3.28124977 60.1875,3.328125 C59.9531238,3.4687507 59.8125002,3.56249977 59.765625,3.609375 C59.6249993,3.93750164 59.4375012,4.40624695 59.203125,5.015625 C59.0624993,5.34375164 58.9687502,5.5781243 58.921875,5.71875 L61.875,5.71875 L61.875,1.78125 C61.875,1.6406243 61.8281255,1.38281437 61.734375,1.0078125 L61.6640625,0.5859375 C62.8828186,0.539062266 63.796872,0.749997656 64.40625,1.21875 C64.40625,1.31250047 64.3125009,1.4296868 64.125,1.5703125 C63.9843743,1.66406297 63.9140625,1.73437477 63.9140625,1.78125 L63.9140625,5.71875 L66.65625,5.71875 L66.7265625,5.6484375 C67.2421901,4.89843375 67.6171863,4.42968844 67.8515625,4.2421875 C67.8984377,4.14843703 67.9687495,4.14843703 68.0625,4.2421875 C69.2812561,4.94531602 69.9609368,5.46093586 70.1015625,5.7890625 C70.1484377,5.9296882 70.1015632,6.02343727 69.9609375,6.0703125 L63.9140625,6.0703125 L63.9140625,10.78125 L66.09375,10.78125 L66.1640625,10.7109375 C66.6796901,9.96093375 67.0546863,9.49218844 67.2890625,9.3046875 C67.3359377,9.21093703 67.4062495,9.21093703 67.5,9.3046875 C68.7187561,10.007816 69.3984368,10.5234359 69.5390625,10.8515625 C69.5859377,10.9921882 69.5390632,11.0859373 69.3984375,11.1328125 L63.9140625,11.1328125 L63.9140625,15.9140625 L67.921875,15.9140625 C68.0156255,15.820312 68.1562491,15.6328139 68.34375,15.3515625 L69.1171875,14.578125 C69.210938,14.4843745 69.304687,14.4843745 69.3984375,14.578125 C70.4765679,15.1406278 71.1562486,15.6093731 71.4375,15.984375 C71.3906248,16.1718759 71.320313,16.265625 71.2265625,16.265625 L55.96875,16.265625 C55.9218748,16.265625 55.5234412,16.2890623 54.7734375,16.3359375 L54.421875,15.84375 C54.6093759,15.8906252 54.7968741,15.9140625 54.984375,15.9140625 L61.875,15.9140625 L61.875,11.1328125 L58.5703125,11.1328125 C58.1953106,11.1328125 57.7968771,11.1562498 57.375,11.203125 L57.0234375,10.7109375 C57.2578137,10.7109375 57.4687491,10.7343748 57.65625,10.78125 L61.875,10.78125 L61.875,6.0703125 L58.78125,6.0703125 C57.7499948,8.46094945 56.5546943,10.2656189 55.1953125,11.484375 C55.101562,11.5312502 55.0312502,11.4843757 54.984375,11.34375 C56.0625054,9.14061398 56.9296842,6.11720672 57.5859375,2.2734375 C57.6328127,2.17968703 57.7265618,2.15624977 57.8671875,2.203125 Z M88.734375,14.6484375 C88.8750007,15.9140688 88.1015709,16.6874986 86.4140625,16.96875 C86.2265616,16.9218748 86.1093752,16.851563 86.0625,16.7578125 C86.0156248,15.7265573 85.3359441,15.0937512 84.0234375,14.859375 C83.929687,14.6249988 83.9531243,14.460938 84.09375,14.3671875 C85.9218841,14.7421894 86.7656257,14.4843795 86.625,13.59375 L86.625,1.78125 L75.375,1.78125 L75.375,15.9140625 C75.3281248,16.2890644 74.9531285,16.523437 74.25,16.6171875 C73.640622,16.6171875 73.3359375,16.4296894 73.3359375,16.0546875 L73.4765625,3.46875 L73.4765625,2.1328125 L73.40625,0.515625 L73.4765625,0.4453125 C73.6171882,0.492187734 73.8515609,0.585936797 74.1796875,0.7265625 C74.882816,0.914063437 75.3515613,1.10156156 75.5859375,1.2890625 C75.6328127,1.2890625 75.65625,1.31249977 75.65625,1.359375 L86.4140625,1.359375 C86.7890644,0.890622656 87.0468743,0.585938203 87.1875,0.4453125 C87.1875,0.398437266 87.2578118,0.398437266 87.3984375,0.4453125 L87.46875,0.4453125 C88.1250033,0.773439141 88.7343722,1.14843539 89.296875,1.5703125 L89.296875,1.8515625 L88.6640625,2.34375 L88.734375,14.6484375 Z M76.078125,4.875 C76.7812535,5.29687711 77.4140597,5.76562242 77.9765625,6.28125 C78.0234377,5.99999859 78.0703123,5.60156508 78.1171875,5.0859375 C78.2578132,4.14843281 78.3515623,3.44531484 78.3984375,2.9765625 C78.4453127,2.78906156 78.5390618,2.6953125 78.6796875,2.6953125 C79.6171922,2.97656391 80.390622,3.25781109 81,3.5390625 C81.0937505,3.63281297 81.0937505,3.7499993 81,3.890625 C81,3.93750023 80.8828137,4.00781203 80.6484375,4.1015625 C80.3671861,4.2421882 80.2265625,4.33593727 80.2265625,4.3828125 C80.132812,4.71093914 79.9687512,5.20312172 79.734375,5.859375 C79.4999988,6.56250352 79.3125007,7.07812336 79.171875,7.40625 C79.8281283,8.10937852 80.3203109,8.83593375 80.6484375,9.5859375 C80.9765641,10.3828165 80.8828151,11.0156227 80.3671875,11.484375 C79.7109342,11.9062521 79.1953144,11.7421913 78.8203125,10.9921875 C78.6796868,10.7109361 78.5859377,10.3125026 78.5390625,9.796875 C78.5390625,9.74999977 78.5156252,9.67968797 78.46875,9.5859375 C78.46875,9.49218703 78.4453127,9.42187523 78.3984375,9.375 C77.7890595,10.9218827 76.9687552,12.5156168 75.9375,14.15625 C75.7968743,14.2031252 75.7031252,14.1328134 75.65625,13.9453125 C76.5468795,11.9765527 77.2265602,9.86719875 77.6953125,7.6171875 C77.2734354,6.91405898 76.6875037,6.07031742 75.9375,5.0859375 C75.9375,4.9453118 75.9843745,4.875 76.078125,4.875 Z M80.7890625,4.453125 C81.4453158,4.87500211 82.1015592,5.46093375 82.7578125,6.2109375 C83.0390639,5.17968234 83.2031248,4.17187992 83.25,3.1875 C83.2968752,2.99999906 83.3906243,2.90625 83.53125,2.90625 C84.7031309,3.23437664 85.5234352,3.51562383 85.9921875,3.75 C86.0390627,3.79687523 86.0390627,3.8906243 85.9921875,4.03125 L85.9921875,4.1015625 L85.21875,4.5234375 C84.9374986,5.55469266 84.5390651,6.60936961 84.0234375,7.6875 C84.914067,8.81250562 85.5468731,9.77343352 85.921875,10.5703125 C86.2500016,11.3671915 86.1562526,11.9999977 85.640625,12.46875 C84.9843717,12.8906271 84.4687519,12.7265663 84.09375,11.9765625 L83.8125,11.1328125 C83.8125,10.9453116 83.7890627,10.804688 83.7421875,10.7109375 C83.6015618,10.1484347 83.4375009,9.65625211 83.25,9.234375 C82.0781191,11.2968853 80.6250087,13.0546802 78.890625,14.5078125 C78.6562488,14.5078125 78.5624998,14.4375007 78.609375,14.296875 C80.3906339,12.1874895 81.6796835,9.89063742 82.4765625,7.40625 C81.9140597,6.32811961 81.2812535,5.41406625 80.578125,4.6640625 C80.578125,4.5234368 80.6484368,4.453125 80.7890625,4.453125 Z" id="起点女生网" fill="#000000"></path>
    </g>
</svg>